{"title":"The Equalizer 2014 720p FIRST ENGLISH HDCAM x264 Pimp4003","uid":11145111,"size":2415263542,"categoryP":"video","categoryS":"movies","magnet":"?xt=urn:btih:047e1e899715bdee134401aac8f921e4eeb84db7&amp;dn=The+Equalizer+2014+720p+FIRST+ENGLISH+HDCAM+x264+Pimp4003&amp;tr=udp%3A%2F%2Ftracker.openbittorrent.com%3A80&amp;tr=udp%3A%2F%2Fopen.demonii.com%3A1337&amp;tr=udp%3A%2F%2Ftracker.coppersurfer.tk%3A6969&amp;tr=udp%3A%2F%2Fexodus.desync.com%3A6969","seeders":48,"leechers":0,"uploader":"shawnmurthy","files":-1,"time":1412247575,"description":"SOURCE IS SHOP3301...THANKS.....FOR THE FIRST VERSION THIS CAM IS VERY GOOD...VIDEO WAS SHAKY FOR LIKE THE FIRST 30 SECONDS AFTER THAT IT STRAIGHTENS OUT.....HAD TO ADJUST THE CONTRAST AND FIX THE FLICKERING THAT IT HAS HERE AND THERE AND ALSO BRIGHTENED A LITTLE BIT BUT ONLY THE DARK SCENES.....AUDIO WAS A LITTLE HOLLOW FIXED THAT HAS WELL............ENJOY.....PIMP4003\n &lt;a href=&quot;\nhttp://i.imgur.com/fW5GLTr.jpg&quot; rel=&quot;nofollow&quot; target=&quot;_NEW&quot;&gt;\nhttp://i.imgur.com/fW5GLTr.jpg&lt;/a&gt;\n &lt;a href=&quot;\nhttp://i.imgur.com/b4F6Wuq.jpg&quot; rel=&quot;nofollow&quot; target=&quot;_NEW&quot;&gt;\nhttp://i.imgur.com/b4F6Wuq.jpg&lt;/a&gt;\n\nFOR REQUESTS, EXCLUSIVE MOVIES AND SUPER FAST SPEEDS AND FOR SCREENSHOTS AND SAMPLE....CLICK BELOW LINK\n\nThe Equalizer 2014 720p FIRST ENGLISH HDCAM x264 Pimp4003\n\nENJOY\n\nPIMP4003\n\nVideo\nID                                       : 1\nFormat                                   : MPEG-4 Visual\nFormat profile                           : Simple@L3\nFormat settings, BVOP                    : No\nFormat settings, QPel                    : No\nFormat settings, GMC                     : No warppoints\nFormat settings, Matrix                  : Default (H.263)\nCodec ID                                 : 20\nDuration                                 : 2h 7mn\nBit rate                                 : 2 393 Kbps\nWidth                                    : 1 280 pixels\nHeight                                   : 536 pixels\nDisplay aspect ratio                     : 2.40:1\nFrame rate mode                          : Variable\nFrame rate                               : 59.940 fps\nMinimum frame rate                       : 59.916 fps\nMaximum frame rate                       : 60.157 fps\nColor space                              : YUV\nChroma subsampling                       : 4:2:0\nBit depth                                : 8 bits\nScan type                                : Progressive\nCompression mode                         : Lossy\nBits/(Pixel*Frame)                       : 0.058\nStream size                              : 2.13 GiB (95%)\nWriting library                          : ZJMedia MPEG Encoder\n\nAudio\nID                                       : 2\nFormat                                   : AAC\nFormat/Info                              : Advanced Audio Codec\nFormat profile                           : LC\nCodec ID                                 : 40\nDuration                                 : 2h 7mn\nBit rate mode                            : Variable\nBit rate                                 : 128 Kbps\nChannel(s)                               : 2 channels\nChannel positions                        : Front: L R\nSampling rate                            : 48.0 KHz\nCompression mode                         : Lossy\nStream size                              : 117 MiB (5%)\n\n","torrent":{"xt":"urn:btih:047e1e899715bdee134401aac8f921e4eeb84db7","amp;dn":"The+Equalizer+2014+720p+FIRST+ENGLISH+HDCAM+x264+Pimp4003","amp;tr":["udp%3A%2F%2Ftracker.openbittorrent.com%3A80","udp%3A%2F%2Fopen.demonii.com%3A1337","udp%3A%2F%2Ftracker.coppersurfer.tk%3A6969","udp%3A%2F%2Fexodus.desync.com%3A6969"],"infoHash":"047e1e899715bdee134401aac8f921e4eeb84db7","infoHashBuffer":{"type":"Buffer","data":[4,126,30,137,151,21,189,238,19,68,1,170,200,249,33,228,238,184,77,183]},"announce":[],"urlList":[]}}